<svg xmlns="http://www.w3.org/2000/svg" xmlns:xlink="http://www.w3.org/1999/xlink" width="1920" zoomAndPan="magnify" viewBox="0 0 1440 809.999993" height="1080" preserveAspectRatio="xMidYMid meet" version="1.0"><defs><g/></defs><g fill="#f57328" fill-opacity="1"><g transform="translate(64.64631, 512.80986)"><g><path d="M 252.347656 -262.289062 C 213.71875 -290.53125 136.90625 -286.6875 96.242188 -273.359375 C 33.210938 -252.347656 1.582031 -217.105469 -1.128906 -193.160156 C -2.710938 -185.027344 1.128906 -176.667969 8.132812 -171.921875 C 22.816406 -163.113281 50.378906 -170.566406 84.042969 -192.707031 C 86.753906 -194.515625 87.429688 -198.355469 85.621094 -201.066406 C 83.816406 -203.777344 80.199219 -204.453125 77.488281 -202.648438 C 43.148438 -180.054688 21.914062 -177.34375 14.234375 -182.089844 C 11.296875 -184.347656 9.714844 -188.1875 10.617188 -191.804688 C 12.425781 -208.070312 38.40625 -241.503906 99.855469 -262.0625 C 137.132812 -274.488281 210.328125 -278.105469 245.347656 -252.800781 C 258.222656 -243.992188 265.679688 -229.304688 265.226562 -213.945312 C 265.679688 -196.097656 257.996094 -178.925781 244.214844 -167.40625 C 214.847656 -141.875 160.628906 -136.453125 119.511719 -136.453125 C 117.023438 -136.453125 114.992188 -137.582031 113.410156 -139.617188 C 112.054688 -141.425781 111.601562 -143.910156 112.28125 -146.167969 C 123.125 -182.316406 131.710938 -213.265625 132.386719 -215.976562 C 133.066406 -218.011719 132.613281 -220.269531 131.03125 -221.851562 C 129.449219 -223.433594 127.191406 -224.109375 125.15625 -223.433594 C 123.125 -222.980469 121.542969 -221.171875 121.089844 -219.140625 C 120.867188 -218.460938 110.925781 -182.765625 98.953125 -142.78125 C 98.046875 -139.390625 94.886719 -137.132812 91.269531 -137.359375 C 75.457031 -138.261719 65.0625 -139.617188 64.839844 -139.617188 C 61.449219 -140.070312 58.511719 -137.808594 58.0625 -134.648438 C 57.609375 -131.257812 59.867188 -128.320312 63.03125 -127.867188 C 63.484375 -127.867188 71.839844 -126.738281 84.71875 -124.253906 C 86.753906 -123.800781 88.558594 -122.445312 89.6875 -120.640625 C 90.820312 -118.832031 91.042969 -116.800781 90.59375 -114.765625 C 83.136719 -89.238281 74.550781 -64.160156 64.160156 -39.535156 C 62.804688 -36.597656 63.933594 -33.210938 66.871094 -31.628906 C 69.808594 -30.273438 73.421875 -31.402344 75.003906 -34.339844 C 85.621094 -60.09375 94.886719 -86.527344 102.566406 -113.410156 C 103.695312 -117.023438 107.535156 -119.285156 111.378906 -118.378906 C 150.234375 -109.117188 201.066406 -92.625 216.65625 -68 C 221.171875 -61.449219 222.300781 -53.316406 219.816406 -45.859375 C 202.648438 8.8125 69.582031 -18.75 19.878906 -33.886719 C 16.71875 -34.792969 13.554688 -32.984375 12.652344 -29.820312 C 11.523438 -26.660156 13.328125 -23.496094 16.492188 -22.589844 C 21.011719 -21.011719 86.753906 -1.355469 144.8125 -1.355469 C 184.800781 -1.355469 221.171875 -10.84375 231.113281 -42.246094 C 234.726562 -52.863281 233.148438 -64.839844 226.820312 -74.328125 C 215.523438 -91.949219 189.996094 -105.730469 162.207031 -115.667969 C 159.722656 -116.574219 158.140625 -119.058594 158.59375 -121.769531 C 158.820312 -124.480469 160.851562 -126.511719 163.5625 -126.738281 C 196.320312 -130.355469 229.984375 -139.390625 251.898438 -158.367188 C 268.164062 -172.148438 277.425781 -192.480469 277.199219 -213.945312 C 277.652344 -233.148438 268.390625 -251.445312 252.347656 -262.289062 Z M 252.347656 -262.289062 "/></g></g></g><g fill="#f57328" fill-opacity="1"><g transform="translate(314.262484, 512.80986)"><g><path d="M 188.867188 -54.671875 C 186.609375 -57.15625 182.765625 -57.382812 180.28125 -55.125 C 179.605469 -54.445312 112.507812 5.875 70.9375 -21.460938 C 54.445312 -32.304688 50.378906 -58.511719 50.378906 -58.738281 C 50.152344 -61.449219 48.121094 -63.484375 45.410156 -63.933594 C 42.925781 -64.160156 40.214844 -62.804688 39.082031 -60.546875 C 28.464844 -37.050781 9.714844 -7.230469 4.519531 -10.617188 C 4.066406 -10.617188 3.164062 -11.523438 2.484375 -13.101562 C -0.226562 -20.558594 0.679688 -28.691406 4.519531 -35.695312 C 13.101562 -53.316406 28.917969 -65.96875 47.894531 -70.710938 C 49.925781 -71.164062 51.507812 -72.746094 52.1875 -74.777344 C 52.863281 -76.8125 52.1875 -79.070312 50.832031 -80.652344 C 49.25 -82.007812 47.214844 -82.6875 45.183594 -82.234375 C 22.589844 -76.8125 3.839844 -61.449219 -6.324219 -40.664062 C -11.746094 -30.5 -12.425781 -18.300781 -8.132812 -7.679688 C -6.101562 -2.484375 -1.128906 1.128906 4.519531 1.128906 L 4.746094 1.128906 C 15.8125 0.902344 29.59375 -12.878906 39.082031 -27.789062 C 40.214844 -29.59375 42.246094 -30.5 44.28125 -30.273438 C 46.3125 -30.273438 48.121094 -29.144531 49.023438 -27.335938 C 52.863281 -21.011719 58.0625 -15.589844 64.386719 -11.746094 C 113.636719 21.011719 185.253906 -43.601562 188.414062 -46.3125 C 189.542969 -47.441406 190.222656 -49.023438 190.222656 -50.378906 C 190.449219 -51.960938 189.769531 -53.542969 188.867188 -54.671875 Z M 188.867188 -54.671875 "/></g></g></g><g fill="#f57328" fill-opacity="1"><g transform="translate(496.787269, 512.80986)"><g><path d="M 186.609375 -53.542969 C 184.347656 -55.800781 180.507812 -56.027344 178.023438 -53.769531 C 140.746094 -17.621094 65.96875 -10.390625 41.34375 -20.558594 C 37.726562 -22.140625 35.46875 -23.945312 35.242188 -25.300781 C 35.242188 -28.464844 41.570312 -36.824219 65.96875 -48.347656 C 71.164062 -49.703125 76.8125 -51.507812 77.039062 -56.707031 C 76.8125 -59.417969 75.230469 -62.128906 72.519531 -63.03125 C 65.0625 -65.515625 38.40625 -58.0625 11.296875 -30.726562 C 10.390625 -29.820312 8.8125 -29.59375 7.679688 -30.046875 C 6.324219 -30.726562 5.648438 -32.082031 5.875 -33.4375 C 6.550781 -38.632812 7.003906 -43.601562 7.679688 -48.570312 C 7.679688 -48.796875 7.90625 -48.796875 7.90625 -49.023438 C 24.851562 -76.132812 78.621094 -166.726562 63.257812 -187.964844 C 58.964844 -193.160156 51.960938 -195.191406 45.636719 -192.707031 C 11.746094 -184.347656 -1.355469 -88.109375 -8.8125 -4.96875 C -9.035156 -2.257812 -7.457031 0.226562 -4.96875 1.128906 C -2.484375 2.035156 0.226562 1.128906 1.808594 -1.128906 C 7.679688 -9.488281 14.234375 -17.394531 21.6875 -24.398438 C 22.589844 -25.527344 23.496094 -25.300781 23.496094 -25.078125 C 23.496094 -20.332031 25.980469 -14.007812 36.824219 -9.488281 C 64.613281 1.808594 145.039062 -5.195312 186.382812 -45.183594 C 187.511719 -46.3125 188.1875 -47.667969 188.1875 -49.25 C 188.1875 -50.832031 187.511719 -52.414062 186.609375 -53.542969 Z M 48.570312 -181.1875 C 49.476562 -181.410156 50.605469 -181.636719 51.734375 -181.636719 C 52.640625 -181.636719 53.316406 -181.410156 53.542969 -180.960938 C 58.285156 -174.632812 46.3125 -140.292969 19.429688 -91.722656 C 18.75 -90.59375 17.167969 -90.140625 16.039062 -90.59375 C 14.683594 -91.042969 13.78125 -92.398438 14.007812 -93.753906 C 25.300781 -159.722656 38.40625 -178.699219 48.570312 -181.1875 Z M 48.570312 -181.1875 "/></g></g></g><g fill="#f57328" fill-opacity="1"><g transform="translate(674.79406, 512.80986)"><g><path d="M 188.867188 -54.671875 C 186.609375 -57.15625 182.765625 -57.382812 180.28125 -55.125 C 179.605469 -54.445312 112.507812 5.875 70.9375 -21.460938 C 54.445312 -32.304688 50.378906 -58.511719 50.378906 -58.738281 C 50.152344 -61.449219 48.121094 -63.484375 45.410156 -63.933594 C 42.925781 -64.160156 40.214844 -62.804688 39.082031 -60.546875 C 28.464844 -37.050781 9.714844 -7.230469 4.519531 -10.617188 C 4.066406 -10.617188 3.164062 -11.523438 2.484375 -13.101562 C -0.226562 -20.558594 0.679688 -28.691406 4.519531 -35.695312 C 13.101562 -53.316406 28.917969 -65.96875 47.894531 -70.710938 C 49.925781 -71.164062 51.507812 -72.746094 52.1875 -74.777344 C 52.863281 -76.8125 52.1875 -79.070312 50.832031 -80.652344 C 49.25 -82.007812 47.214844 -82.6875 45.183594 -82.234375 C 22.589844 -76.8125 3.839844 -61.449219 -6.324219 -40.664062 C -11.746094 -30.5 -12.425781 -18.300781 -8.132812 -7.679688 C -6.101562 -2.484375 -1.128906 1.128906 4.519531 1.128906 L 4.746094 1.128906 C 15.8125 0.902344 29.59375 -12.878906 39.082031 -27.789062 C 40.214844 -29.59375 42.246094 -30.5 44.28125 -30.273438 C 46.3125 -30.273438 48.121094 -29.144531 49.023438 -27.335938 C 52.863281 -21.011719 58.0625 -15.589844 64.386719 -11.746094 C 113.636719 21.011719 185.253906 -43.601562 188.414062 -46.3125 C 189.542969 -47.441406 190.222656 -49.023438 190.222656 -50.378906 C 190.449219 -51.960938 189.769531 -53.542969 188.867188 -54.671875 Z M 188.867188 -54.671875 "/></g></g></g><g fill="#f57328" fill-opacity="1"><g transform="translate(857.318846, 512.80986)"><g><path d="M 194.742188 -59.417969 C 193.609375 -60.546875 192.253906 -61.222656 190.675781 -61.222656 C 189.09375 -61.222656 187.511719 -60.546875 186.382812 -59.417969 C 147.296875 -21.234375 77.941406 -13.101562 63.03125 -21.914062 C 52.863281 -27.789062 53.996094 -34.792969 61.222656 -48.796875 C 64.613281 -55.574219 68.453125 -63.484375 61.902344 -68.226562 C 55.800781 -72.746094 49.925781 -69.808594 44.730469 -67.097656 C 37.277344 -62.804688 28.917969 -60.546875 20.105469 -60.546875 C 18.074219 -60.546875 16.265625 -64.160156 16.71875 -65.515625 C 29.371094 -93.304688 23.722656 -98.5 21.6875 -100.53125 C 18.300781 -103.921875 13.101562 -103.695312 6.777344 -99.855469 C -3.613281 -92.398438 -8.132812 -79.070312 -4.519531 -66.644531 C -3.613281 -63.257812 -2.035156 -60.09375 0.226562 -57.382812 C 0 -54.898438 1.128906 -52.640625 3.390625 -51.507812 C 4.746094 -50.832031 6.324219 -50.832031 7.90625 -51.285156 C 11.746094 -49.476562 16.039062 -48.570312 20.332031 -48.570312 C 29.59375 -48.347656 38.632812 -50.378906 46.765625 -54.898438 C 49.925781 -56.480469 51.058594 -55.125 50.605469 -54.21875 C 45.183594 -43.601562 35.46875 -24.171875 57.15625 -11.523438 C 64.839844 -7.90625 73.421875 -6.324219 82.007812 -7.003906 C 113.636719 -7.003906 163.339844 -20.558594 194.515625 -51.058594 C 195.644531 -51.960938 196.320312 -53.542969 196.320312 -55.125 C 196.546875 -56.707031 195.871094 -58.285156 194.742188 -59.417969 Z M 6.550781 -71.839844 C 5.195312 -78.394531 7.457031 -85.171875 12.652344 -89.464844 C 11.070312 -83.363281 9.035156 -77.488281 6.550781 -71.617188 Z M 6.550781 -71.839844 "/></g></g></g><g fill="#f57328" fill-opacity="1"><g transform="translate(1042.554378, 512.80986)"><g><path d="M 178.699219 -62.128906 C 176.214844 -64.386719 172.601562 -64.386719 170.339844 -62.128906 C 168.984375 -60.773438 139.390625 -31.402344 99.402344 -60.773438 C 97.144531 -62.351562 94.207031 -62.351562 91.949219 -60.320312 C 88.332031 -57.15625 84.492188 -53.316406 80.425781 -49.25 C 78.84375 -47.441406 76.132812 -46.765625 73.875 -47.667969 C 71.617188 -48.570312 70.035156 -50.605469 69.808594 -53.089844 C 69.808594 -57.835938 69.128906 -62.578125 67.550781 -67.097656 C 66.644531 -69.582031 64.160156 -71.164062 61.449219 -70.710938 C 58.738281 -70.484375 56.707031 -68.453125 56.253906 -65.96875 C 56.253906 -65.515625 49.023438 -25.527344 18.300781 -17.394531 C 15.589844 -16.492188 12.652344 -17.167969 10.617188 -19.203125 C 8.8125 -21.234375 3.613281 -30.273438 15.363281 -58.964844 C 16.492188 -62.128906 15.136719 -65.515625 11.972656 -66.644531 C 9.035156 -68 5.421875 -66.417969 4.292969 -63.484375 C -8.359375 -32.304688 -4.066406 -17.847656 1.582031 -11.296875 C 6.550781 -5.875 14.234375 -3.839844 21.234375 -6.101562 C 37.050781 -10.390625 50.152344 -21.234375 57.609375 -35.695312 C 57.382812 -31.402344 56.707031 -27.109375 56.027344 -22.589844 C 55.800781 -21.6875 55.351562 -20.558594 54.671875 -19.65625 C 28.238281 13.554688 4.292969 54.21875 3.839844 79.75 C 3.164062 86.527344 5.648438 93.304688 10.390625 98.5 C 12.425781 100.53125 15.136719 101.886719 18.074219 101.886719 C 20.558594 101.664062 23.042969 100.984375 25.078125 99.628906 C 39.988281 89.6875 58.964844 31.855469 66.417969 -14.234375 C 66.644531 -15.363281 67.097656 -16.265625 67.773438 -17.167969 C 74.777344 -25.753906 82.007812 -33.886719 89.238281 -41.117188 C 93.304688 -45.410156 99.402344 -46.3125 104.601562 -43.601562 C 129 -30.726562 158.820312 -34.792969 178.699219 -53.769531 C 179.832031 -54.898438 180.507812 -56.480469 180.507812 -58.0625 C 180.507812 -59.640625 179.832031 -60.996094 178.699219 -62.128906 Z M 49.703125 10.390625 C 44.730469 32.984375 37.503906 54.671875 28.015625 75.683594 C 22.816406 86.074219 20.558594 90.140625 18.300781 89.6875 C 16.265625 89.464844 15.589844 84.492188 15.8125 79.976562 C 16.039062 63.484375 29.59375 36.371094 47.667969 9.941406 C 48.796875 8.359375 50.152344 8.8125 49.703125 10.390625 Z M 49.703125 10.390625 "/></g></g></g><g fill="#f57328" fill-opacity="1"><g transform="translate(1210.395817, 512.80986)"><g><path d="M 188.867188 -54.671875 C 186.609375 -57.15625 182.765625 -57.382812 180.28125 -55.125 C 179.605469 -54.445312 112.507812 5.875 70.9375 -21.460938 C 54.445312 -32.304688 50.378906 -58.511719 50.378906 -58.738281 C 50.152344 -61.449219 48.121094 -63.484375 45.410156 -63.933594 C 42.925781 -64.160156 40.214844 -62.804688 39.082031 -60.546875 C 28.464844 -37.050781 9.714844 -7.230469 4.519531 -10.617188 C 4.066406 -10.617188 3.164062 -11.523438 2.484375 -13.101562 C -0.226562 -20.558594 0.679688 -28.691406 4.519531 -35.695312 C 13.101562 -53.316406 28.917969 -65.96875 47.894531 -70.710938 C 49.925781 -71.164062 51.507812 -72.746094 52.1875 -74.777344 C 52.863281 -76.8125 52.1875 -79.070312 50.832031 -80.652344 C 49.25 -82.007812 47.214844 -82.6875 45.183594 -82.234375 C 22.589844 -76.8125 3.839844 -61.449219 -6.324219 -40.664062 C -11.746094 -30.5 -12.425781 -18.300781 -8.132812 -7.679688 C -6.101562 -2.484375 -1.128906 1.128906 4.519531 1.128906 L 4.746094 1.128906 C 15.8125 0.902344 29.59375 -12.878906 39.082031 -27.789062 C 40.214844 -29.59375 42.246094 -30.5 44.28125 -30.273438 C 46.3125 -30.273438 48.121094 -29.144531 49.023438 -27.335938 C 52.863281 -21.011719 58.0625 -15.589844 64.386719 -11.746094 C 113.636719 21.011719 185.253906 -43.601562 188.414062 -46.3125 C 189.542969 -47.441406 190.222656 -49.023438 190.222656 -50.378906 C 190.449219 -51.960938 189.769531 -53.542969 188.867188 -54.671875 Z M 188.867188 -54.671875 "/></g></g></g></svg>